<?xml version="1.0"?>
<svg xmlns="http://www.w3.org/2000/svg" width="512" height="512" viewBox="0 0 512 512"><g id="Solid"><g><g><path d="M16,42V262a10,10,0,0,0,10,10H40V32H26A10,10,0,0,0,16,42Z"/><path d="M256,232a80,80,0,1,0-80-80A80.09,80.09,0,0,0,256,232ZM224,112a8,8,0,0,1,12.24-6.7842l64,40a8.0006,8.0006,0,0,1,0,13.5684l-64,40A8,8,0,0,1,224,192Z"/><path d="M56,272H456V32H56ZM408,48h16a8,8,0,0,1,8,8V72H416V64h-8Zm0,192h8v-8h16v16a8,8,0,0,1-8,8H408ZM256,56a96,96,0,1,1-96,96A96.1087,96.1087,0,0,1,256,56ZM80,56a8,8,0,0,1,8-8h16V64H96v8H80Zm0,176H96v8h8v16H88a8,8,0,0,1-8-8Z"/><polygon points="240 126.434 240 177.566 280.906 152 240 126.434"/><path d="M486,32H472V272h14a10,10,0,0,0,10-10V42A10,10,0,0,0,486,32Z"/></g><path d="M44,448a12.0137,12.0137,0,0,1-12-12V372a12.0137,12.0137,0,0,1,12-12H80v88Zm31.0557,32H56V464H83.0557ZM248,448H96V420a12.0137,12.0137,0,0,1,12-12H236a12.0137,12.0137,0,0,1,12,12ZM144,390V362a2.002,2.002,0,0,1,2-2h60a2.002,2.002,0,0,1,2,2v28a2.002,2.002,0,0,1-2,2H146A2.002,2.002,0,0,1,144,390Zm272,58H264V420a12.0137,12.0137,0,0,1,12-12H404a12.0137,12.0137,0,0,1,12,12ZM304,390V362a2.002,2.002,0,0,1,2-2h60a2.002,2.002,0,0,1,2,2v28a2.002,2.002,0,0,1-2,2H306A2.002,2.002,0,0,1,304,390Zm112,4.7042A27.8338,27.8338,0,0,0,404,392H383.8893A18.1,18.1,0,0,0,384,390V362a18.02,18.02,0,0,0-18-18H306a18.02,18.02,0,0,0-18,18v28a18.1,18.1,0,0,0,.1107,2H276a27.9177,27.9177,0,0,0-20,8.4229A27.9177,27.9177,0,0,0,236,392H223.8893A18.1,18.1,0,0,0,224,390V362a18.02,18.02,0,0,0-18-18H146a18.02,18.02,0,0,0-18,18v28a18.1,18.1,0,0,0,.1107,2H108a27.8338,27.8338,0,0,0-12,2.7042V332a12.0137,12.0137,0,0,1,12-12H404a12.0137,12.0137,0,0,1,12,12ZM456,480H436.9443l-8-16H456Zm24-44a12.0137,12.0137,0,0,1-12,12H432V360h36a12.0137,12.0137,0,0,1,12,12Z"/></g></g></svg>
